<svg width="24" height="24" viewBox="0 0 24 24" fill="none" xmlns="http://www.w3.org/2000/svg">
<path d="M10.2726 0.11129C8.15323 0.416129 6.10161 1.27742 4.35968 2.71452L8.10484 6.45968C9.45 4.72742 10.2 2.53065 10.2726 0.11129ZM12 10.3548L19.6403 2.71452C17.5887 1.02097 15.1113 0.125806 12.6 0C12.5419 3.09194 11.5597 5.91774 9.75968 8.11452L12 10.3548ZM2.71452 4.35968C1.27742 6.10161 0.416129 8.15323 0.11129 10.2726C2.53065 10.2 4.73226 9.45 6.45968 8.10484L2.71452 4.35968ZM15.8855 14.2403C18.0774 12.4452 20.9032 11.4629 24 11.4C23.8742 8.88871 22.979 6.41129 21.2855 4.35968L13.6452 12L15.8855 14.2403ZM12 13.6452L4.35968 21.2855C6.41129 22.9742 8.88871 23.8742 11.4 24C11.4629 20.9032 12.4452 18.0774 14.2403 15.8855L12 13.6452ZM21.2855 19.6403C22.7226 17.8984 23.5839 15.8468 23.8887 13.7274C21.4645 13.8048 19.2677 14.5548 17.5403 15.8952L21.2855 19.6403ZM8.11452 9.75968C5.91774 11.5597 3.09194 12.5468 0 12.6C0.125806 15.1113 1.02097 17.5887 2.71452 19.6403L10.3548 12L8.11452 9.75968ZM13.7274 23.8887C15.8468 23.5839 17.8984 22.7226 19.6403 21.2855L15.8952 17.5403C14.5548 19.2677 13.8048 21.4694 13.7274 23.8887Z" fill="#20A4F3"/>
<path d="M10.2726 0.11129C8.15322 0.416129 6.10161 1.27742 4.35968 2.71452L8.10484 6.45968C9.45 4.72742 10.2 2.53065 10.2726 0.11129ZM12 10.3548L19.6403 2.71452C17.5887 1.02097 15.1113 0.125806 12.6 0C12.5419 3.09194 11.5597 5.91774 9.75968 8.11452L12 10.3548ZM2.71452 4.35968C1.27742 6.10161 0.416129 8.15323 0.11129 10.2726C2.53064 10.2 4.73226 9.45 6.45968 8.10484L2.71452 4.35968ZM8.11452 9.75968C5.91774 11.5597 3.09194 12.5468 0 12.6C0.125806 15.1113 1.02097 17.5887 2.71452 19.6403L10.3548 12L8.11452 9.75968Z" fill="#FF0A54"/>
</svg>
