<svg width="159" height="24" viewBox="0 0 159 24" fill="none" xmlns="http://www.w3.org/2000/svg">
<path d="M32 0.333333H36.9874L40.8544 14.3H40.9267V0.333333H44.4684V23.6667H40.3846L35.614 6.63333H35.5418V23.6667H32V0.333333Z" fill="#FFFFFA"/>
<path d="M47.4232 0.333333H53.4225C55.4704 0.333333 56.9642 0.777777 57.9039 1.66667C58.8435 2.53333 59.3133 3.87778 59.3133 5.7V6.63333C59.3133 7.83333 59.0965 8.81111 58.6628 9.56667C58.2532 10.3222 57.6148 10.8667 56.7474 11.2V11.2667C58.7231 11.8889 59.7109 13.5111 59.7109 16.1333V18.1333C59.7109 19.9333 59.1929 21.3111 58.1569 22.2667C57.1449 23.2 55.6511 23.6667 53.6755 23.6667H47.4232V0.333333ZM52.9527 9.83333C53.7477 9.83333 54.338 9.64444 54.7235 9.26667C55.1331 8.88889 55.3379 8.25556 55.3379 7.36667V6.06667C55.3379 5.22222 55.1693 4.61111 54.8319 4.23333C54.5187 3.85556 54.0128 3.66667 53.3141 3.66667H51.3986V9.83333H52.9527ZM53.6755 20.3333C54.3742 20.3333 54.8922 20.1667 55.2295 19.8333C55.5668 19.4778 55.7355 18.8778 55.7355 18.0333V16C55.7355 14.9333 55.5307 14.2 55.1211 13.8C54.7356 13.3778 54.085 13.1667 53.1695 13.1667H51.3986V20.3333H53.6755Z" fill="#FFFFFA"/>
<path d="M65.1065 0.333333H70.4914L74.6114 23.6667H70.636L69.9132 19.0333V19.1H65.3957L64.6728 23.6667H60.9865L65.1065 0.333333ZM69.4434 15.9333L67.6725 4.4H67.6002L65.8655 15.9333H69.4434Z" fill="#FFFFFA"/>
<path d="M87.4963 24C85.5688 24 84.1112 23.5 83.1233 22.5C82.1355 21.4778 81.6416 20.0222 81.6416 18.1333V16.8H85.4002V18.4C85.4002 19.9111 86.0868 20.6667 87.4602 20.6667C88.1348 20.6667 88.6408 20.4889 88.9781 20.1333C89.3395 19.7556 89.5202 19.1556 89.5202 18.3333C89.5202 17.3556 89.2792 16.5 88.7974 15.7667C88.3155 15.0111 87.424 14.1111 86.123 13.0667C84.4846 11.7333 83.3402 10.5333 82.6897 9.46667C82.0391 8.37778 81.7139 7.15556 81.7139 5.8C81.7139 3.95556 82.2198 2.53333 83.2318 1.53333C84.2437 0.511111 85.7134 0 87.6409 0C89.5443 0 90.9778 0.511111 91.9416 1.53333C92.9294 2.53333 93.4233 3.97778 93.4233 5.86667V6.83333H89.6647V5.63333C89.6647 4.83333 89.4961 4.25556 89.1588 3.9C88.8215 3.52222 88.3276 3.33333 87.677 3.33333C86.3519 3.33333 85.6893 4.07778 85.6893 5.56667C85.6893 6.41111 85.9302 7.2 86.4121 7.93333C86.9181 8.66667 87.8216 9.55556 89.1226 10.6C90.7851 11.9333 91.9295 13.1444 92.556 14.2333C93.1824 15.3222 93.4956 16.6 93.4956 18.0667C93.4956 19.9778 92.9776 21.4444 91.9416 22.4667C90.9297 23.4889 89.4479 24 87.4963 24Z" fill="#FFFFFA"/>
<path d="M98.8831 3.66667H94.7269V0.333333H107.015V3.66667H102.859V23.6667H98.8831V3.66667Z" fill="#FFFFFA"/>
<path d="M110.353 0.333333H115.737L119.857 23.6667H115.882L115.159 19.0333V19.1H110.642L109.919 23.6667H106.233L110.353 0.333333ZM114.689 15.9333L112.919 4.4H112.846L111.112 15.9333H114.689Z" fill="#FFFFFA"/>
<path d="M123.235 3.66667H119.079V0.333333H131.367V3.66667H127.211V23.6667H123.235V3.66667Z" fill="#FFFFFA"/>
<path d="M139.074 24C137.147 24 135.677 23.5 134.665 22.5C133.653 21.4778 133.147 20.0222 133.147 18.1333V0.333333H137.123V18.4C137.123 19.2 137.291 19.7778 137.629 20.1333C137.99 20.4889 138.496 20.6667 139.147 20.6667C139.797 20.6667 140.291 20.4889 140.628 20.1333C140.99 19.7778 141.17 19.2 141.17 18.4V0.333333H145.001V18.1333C145.001 20.0222 144.495 21.4778 143.483 22.5C142.471 23.5 141.002 24 139.074 24Z" fill="#FFFFFA"/>
<path d="M153.001 24C151.073 24 149.616 23.5 148.628 22.5C147.64 21.4778 147.146 20.0222 147.146 18.1333V16.8H150.905V18.4C150.905 19.9111 151.591 20.6667 152.965 20.6667C153.639 20.6667 154.145 20.4889 154.482 20.1333C154.844 19.7556 155.025 19.1556 155.025 18.3333C155.025 17.3556 154.784 16.5 154.302 15.7667C153.82 15.0111 152.928 14.1111 151.627 13.0667C149.989 11.7333 148.845 10.5333 148.194 9.46667C147.544 8.37778 147.218 7.15556 147.218 5.8C147.218 3.95556 147.724 2.53333 148.736 1.53333C149.748 0.511111 151.218 0 153.145 0C155.049 0 156.482 0.511111 157.446 1.53333C158.434 2.53333 158.928 3.97778 158.928 5.86667V6.83333H155.169V5.63333C155.169 4.83333 155 4.25556 154.663 3.9C154.326 3.52222 153.832 3.33333 153.181 3.33333C151.856 3.33333 151.194 4.07778 151.194 5.56667C151.194 6.41111 151.435 7.2 151.916 7.93333C152.422 8.66667 153.326 9.55556 154.627 10.6C156.289 11.9333 157.434 13.1444 158.06 14.2333C158.687 15.3222 159 16.6 159 18.0667C159 19.9778 158.482 21.4444 157.446 22.4667C156.434 23.4889 154.952 24 153.001 24Z" fill="#FFFFFA"/>
<path d="M10.2726 0.11129C8.15323 0.416129 6.10161 1.27742 4.35968 2.71452L8.10484 6.45968C9.45 4.72742 10.2 2.53065 10.2726 0.11129ZM12 10.3548L19.6403 2.71452C17.5887 1.02097 15.1113 0.125806 12.6 0C12.5419 3.09194 11.5597 5.91774 9.75968 8.11452L12 10.3548ZM2.71452 4.35968C1.27742 6.10161 0.416129 8.15323 0.11129 10.2726C2.53065 10.2 4.73226 9.45 6.45968 8.10484L2.71452 4.35968ZM15.8855 14.2403C18.0774 12.4452 20.9032 11.4629 24 11.4C23.8742 8.88871 22.979 6.41129 21.2855 4.35968L13.6452 12L15.8855 14.2403ZM12 13.6452L4.35968 21.2855C6.41129 22.9742 8.88871 23.8742 11.4 24C11.4629 20.9032 12.4452 18.0774 14.2403 15.8855L12 13.6452ZM21.2855 19.6403C22.7226 17.8984 23.5839 15.8468 23.8887 13.7274C21.4645 13.8048 19.2677 14.5548 17.5403 15.8952L21.2855 19.6403ZM8.11452 9.75968C5.91774 11.5597 3.09194 12.5468 0 12.6C0.125806 15.1113 1.02097 17.5887 2.71452 19.6403L10.3548 12L8.11452 9.75968ZM13.7274 23.8887C15.8468 23.5839 17.8984 22.7226 19.6403 21.2855L15.8952 17.5403C14.5548 19.2677 13.8048 21.4694 13.7274 23.8887Z" fill="#FFFFFA"/>
</svg>
