<svg width="139" height="24" viewBox="0 0 139 24" fill="none" xmlns="http://www.w3.org/2000/svg">
<path d="M10.2726 0.11129C8.15323 0.416129 6.10161 1.27742 4.35968 2.71452L8.10484 6.45968C9.45 4.72742 10.2 2.53065 10.2726 0.11129ZM12 10.3548L19.6403 2.71452C17.5887 1.02097 15.1113 0.125806 12.6 0C12.5419 3.09194 11.5597 5.91774 9.75968 8.11452L12 10.3548ZM2.71452 4.35968C1.27742 6.10161 0.416129 8.15323 0.11129 10.2726C2.53065 10.2 4.73226 9.45 6.45968 8.10484L2.71452 4.35968ZM15.8855 14.2403C18.0774 12.4452 20.9032 11.4629 24 11.4C23.8742 8.88871 22.979 6.41129 21.2855 4.35968L13.6452 12L15.8855 14.2403ZM12 13.6452L4.35968 21.2855C6.41129 22.9742 8.88871 23.8742 11.4 24C11.4629 20.9032 12.4452 18.0774 14.2403 15.8855L12 13.6452ZM21.2855 19.6403C22.7226 17.8984 23.5839 15.8468 23.8887 13.7274C21.4645 13.8048 19.2677 14.5548 17.5403 15.8952L21.2855 19.6403ZM8.11452 9.75968C5.91774 11.5597 3.09194 12.5468 0 12.6C0.125806 15.1113 1.02097 17.5887 2.71452 19.6403L10.3548 12L8.11452 9.75968ZM13.7274 23.8887C15.8468 23.5839 17.8984 22.7226 19.6403 21.2855L15.8952 17.5403C14.5548 19.2677 13.8048 21.4694 13.7274 23.8887Z" fill="url(#paint0_linear)"/>
<path d="M34.312 0.333333H38.912L42.4787 14.3H42.5453V0.333333H45.812V23.6667H42.0453L37.6453 6.63333H37.5787V23.6667H34.312V0.333333Z" fill="url(#paint1_linear)"/>
<path d="M48.5373 0.333333H54.0706C55.9595 0.333333 57.3373 0.777778 58.2039 1.66667C59.0706 2.53333 59.5039 3.87778 59.5039 5.7V6.63333C59.5039 7.83333 59.3039 8.81111 58.9039 9.56667C58.5262 10.3222 57.9373 10.8667 57.1373 11.2V11.2667C58.9595 11.8889 59.8706 13.5111 59.8706 16.1333V18.1333C59.8706 19.9333 59.3928 21.3111 58.4373 22.2667C57.5039 23.2 56.1262 23.6667 54.3039 23.6667H48.5373V0.333333ZM53.6373 9.83333C54.3706 9.83333 54.915 9.64444 55.2706 9.26667C55.6484 8.88889 55.8373 8.25556 55.8373 7.36667V6.06667C55.8373 5.22222 55.6817 4.61111 55.3706 4.23333C55.0817 3.85556 54.615 3.66667 53.9706 3.66667H52.2039V9.83333H53.6373ZM54.3039 20.3333C54.9484 20.3333 55.4262 20.1667 55.7373 19.8333C56.0484 19.4778 56.2039 18.8778 56.2039 18.0333V16C56.2039 14.9333 56.0151 14.2 55.6373 13.8C55.2817 13.3778 54.6817 13.1667 53.8373 13.1667H52.2039V20.3333H54.3039Z" fill="url(#paint2_linear)"/>
<path d="M64.8472 0.333333H69.8138L73.6138 23.6667H69.9472L69.2805 19.0333V19.1H65.1138L64.4472 23.6667H61.0472L64.8472 0.333333ZM68.8472 15.9333L67.2138 4.4H67.1472L65.5472 15.9333H68.8472Z" fill="url(#paint3_linear)"/>
<path d="M85.4979 24C83.7202 24 82.3757 23.5 81.4646 22.5C80.5535 21.4778 80.0979 20.0222 80.0979 18.1333V16.8H83.5646V18.4C83.5646 19.9111 84.1979 20.6667 85.4646 20.6667C86.0868 20.6667 86.5535 20.4889 86.8646 20.1333C87.1979 19.7556 87.3646 19.1556 87.3646 18.3333C87.3646 17.3556 87.1424 16.5 86.6979 15.7667C86.2535 15.0111 85.4313 14.1111 84.2313 13.0667C82.7202 11.7333 81.6646 10.5333 81.0646 9.46667C80.4646 8.37778 80.1646 7.15556 80.1646 5.8C80.1646 3.95556 80.6313 2.53333 81.5646 1.53333C82.4979 0.511111 83.8535 0 85.6313 0C87.3868 0 88.7091 0.511111 89.5979 1.53333C90.5091 2.53333 90.9646 3.97778 90.9646 5.86667V6.83333H87.4979V5.63333C87.4979 4.83333 87.3424 4.25556 87.0313 3.9C86.7202 3.52222 86.2646 3.33333 85.6646 3.33333C84.4424 3.33333 83.8313 4.07778 83.8313 5.56667C83.8313 6.41111 84.0535 7.2 84.4979 7.93333C84.9646 8.66667 85.7979 9.55556 86.9979 10.6C88.5313 11.9333 89.5868 13.1444 90.1646 14.2333C90.7424 15.3222 91.0313 16.6 91.0313 18.0667C91.0313 19.9778 90.5535 21.4444 89.5979 22.4667C88.6646 23.4889 87.2979 24 85.4979 24Z" fill="url(#paint4_linear)"/>
<path d="M96.0003 3.66667H92.167V0.333333H103.5V3.66667H99.667V23.6667H96.0003V3.66667Z" fill="url(#paint5_linear)"/>
<path d="M106.579 0.333333H111.546L115.346 23.6667H111.679L111.012 19.0333V19.1H106.846L106.179 23.6667H102.779L106.579 0.333333ZM110.579 15.9333L108.946 4.4H108.879L107.279 15.9333H110.579Z" fill="url(#paint6_linear)"/>
<path d="M118.461 3.66667H114.628V0.333333H125.961V3.66667H122.128V23.6667H118.461V3.66667Z" fill="url(#paint7_linear)"/>
<path d="M132.503 24C130.725 24 129.381 23.5 128.47 22.5C127.559 21.4778 127.103 20.0222 127.103 18.1333V16.8H130.57V18.4C130.57 19.9111 131.203 20.6667 132.47 20.6667C133.092 20.6667 133.559 20.4889 133.87 20.1333C134.203 19.7556 134.37 19.1556 134.37 18.3333C134.37 17.3556 134.148 16.5 133.703 15.7667C133.259 15.0111 132.436 14.1111 131.236 13.0667C129.725 11.7333 128.67 10.5333 128.07 9.46667C127.47 8.37778 127.17 7.15556 127.17 5.8C127.17 3.95556 127.636 2.53333 128.57 1.53333C129.503 0.511111 130.859 0 132.636 0C134.392 0 135.714 0.511111 136.603 1.53333C137.514 2.53333 137.97 3.97778 137.97 5.86667V6.83333H134.503V5.63333C134.503 4.83333 134.348 4.25556 134.036 3.9C133.725 3.52222 133.27 3.33333 132.67 3.33333C131.448 3.33333 130.836 4.07778 130.836 5.56667C130.836 6.41111 131.059 7.2 131.503 7.93333C131.97 8.66667 132.803 9.55556 134.003 10.6C135.536 11.9333 136.592 13.1444 137.17 14.2333C137.748 15.3222 138.036 16.6 138.036 18.0667C138.036 19.9778 137.559 21.4444 136.603 22.4667C135.67 23.4889 134.303 24 132.503 24Z" fill="url(#paint8_linear)"/>
<defs>
<linearGradient id="paint0_linear" x1="12" y1="0" x2="12" y2="24" gradientUnits="userSpaceOnUse">
<stop stop-color="#FF0A54"/>
<stop offset="1" stop-color="#20A4F3"/>
</linearGradient>
<linearGradient id="paint1_linear" x1="3" y1="0" x2="138" y2="0" gradientUnits="userSpaceOnUse">
<stop stop-color="#FF0A54"/>
<stop offset="1" stop-color="#20A4F3"/>
</linearGradient>
<linearGradient id="paint2_linear" x1="3" y1="0" x2="138" y2="0" gradientUnits="userSpaceOnUse">
<stop stop-color="#FF0A54"/>
<stop offset="1" stop-color="#20A4F3"/>
</linearGradient>
<linearGradient id="paint3_linear" x1="3" y1="0" x2="138" y2="0" gradientUnits="userSpaceOnUse">
<stop stop-color="#FF0A54"/>
<stop offset="1" stop-color="#20A4F3"/>
</linearGradient>
<linearGradient id="paint4_linear" x1="3" y1="0" x2="138" y2="0" gradientUnits="userSpaceOnUse">
<stop stop-color="#FF0A54"/>
<stop offset="1" stop-color="#20A4F3"/>
</linearGradient>
<linearGradient id="paint5_linear" x1="3" y1="0" x2="138" y2="0" gradientUnits="userSpaceOnUse">
<stop stop-color="#FF0A54"/>
<stop offset="1" stop-color="#20A4F3"/>
</linearGradient>
<linearGradient id="paint6_linear" x1="3" y1="0" x2="138" y2="0" gradientUnits="userSpaceOnUse">
<stop stop-color="#FF0A54"/>
<stop offset="1" stop-color="#20A4F3"/>
</linearGradient>
<linearGradient id="paint7_linear" x1="3" y1="0" x2="138" y2="0" gradientUnits="userSpaceOnUse">
<stop stop-color="#FF0A54"/>
<stop offset="1" stop-color="#20A4F3"/>
</linearGradient>
<linearGradient id="paint8_linear" x1="3" y1="0" x2="138" y2="0" gradientUnits="userSpaceOnUse">
<stop stop-color="#FF0A54"/>
<stop offset="1" stop-color="#20A4F3"/>
</linearGradient>
</defs>
</svg>
